
<svg version="1.0" xmlns="http://www.w3.org/2000/svg" xmlns:svg="http://www.w3.org/2000/svg" width="624" height="697" viewBox="-673.009521 -1035.303101 623.748535 696.811127" preserveAspectRatio="xMinYMin meet">
	<defs>
		<linearGradient gradientUnits="userSpaceOnUse" gradientTransform="matrix(0.073511, 0.000000, 0.000000, 0.073511, -41.684746, -12.106934)" spreadMethod="pad" id="bb05cfff-4569-4d72-bc0b-2dfb7e545289" x1="499.3947785963448" y1="444.34825714008616" x2="952.9922407916455" y2="703.5961505664851">
			<stop offset="5.906097%" stop-color="#4D05A5" />
			<stop offset="100.000000%" stop-color="#B87EFF" />
		</linearGradient>
		<linearGradient gradientUnits="userSpaceOnUse" gradientTransform="matrix(0.073511, 0.000000, 0.000000, 0.073511, -41.684746, -12.106934)" spreadMethod="pad" id="ba1ea86d-b2b4-43a2-8cd1-5fcc2d32c856" x1="499.3947785963448" y1="444.34825714008616" x2="952.9922407916455" y2="703.5961505664851">
			<stop offset="5.906097%" stop-color="#4D05A5" />
			<stop offset="100.000000%" stop-color="#B87EFF" />
		</linearGradient>
		<linearGradient gradientUnits="userSpaceOnUse" gradientTransform="matrix(0.084888, 0.000000, 0.000000, 0.084888, -45.396633, -28.598633)" spreadMethod="pad" id="14f5518f-5522-49db-8cd9-93e86ceb4518" x1="0.0" y1="500.0" x2="1000.0" y2="500.0">
			<stop offset="0.000000%" stop-color="#B87EFF" />
			<stop offset="100.000000%" stop-color="#5300B8" />
		</linearGradient>
		<linearGradient gradientUnits="userSpaceOnUse" gradientTransform="matrix(0.084888, 0.000000, 0.000000, 0.084888, -45.396633, -28.598633)" spreadMethod="pad" id="43313f5c-4525-4185-9aa3-008ef5a383fc" x1="0.0" y1="500.0" x2="1000.0" y2="500.0">
			<stop offset="0.000000%" stop-color="#B87EFF" />
			<stop offset="100.000000%" stop-color="#5300B8" />
		</linearGradient>
	</defs>
	<g transform="matrix(-0.000000, 7.715764, -7.715764, -0.000000, -202.518921, -648.520386)">
		<path d="M-30.89373016357422,-0.693359375 L-30.89373016357422,25.087890625 Q-30.89373016357422,25.9912109375 -30.99138641357422,26.9921875 Q-31.08904266357422,27.9931640625 -30.89373016357422,28.701171875 Q-30.79607391357422,28.896484375 -30.35662078857422,29.2626953125 Q-29.89275360107422,29.6044921875 -29.35564422607422,29.8974609375 Q-28.79412078857422,30.1904296875 -28.30583953857422,30.458984375 Q-27.79314422607422,30.703125 -27.57341766357422,30.80078125 Q-21.88494110107422,33.9990234375 -16.19646453857422,37.24609375 Q-10.483573913574219,40.4931640625 -4.795097351074219,43.69140625 Q1.8211135864257812,39.9072265625 8.119941711425781,36.1962890625 Q14.418769836425781,32.509765625 21.01056671142578,28.701171875 L21.01056671142578,2.8955078125 Q21.01056671142578,1.9921875 20.91291046142578,0.8935546875 Q20.81525421142578,-0.205078125 21.01056671142578,-0.693359375 Q21.20587921142578,-1.2060546875 22.10919952392578,-1.5966796875 Q23.01251983642578,-2.01171875 23.72052764892578,-2.5 L31.82599639892578,-6.9921875 L31.82599639892578,32.2900390625 L31.82599639892578,35.0 Q31.60626983642578,35.1953125 30.89826202392578,35.5859375 Q30.21466827392578,36.0009765625 29.72638702392578,36.4892578125 Q21.30353546142578,41.298828125 13.515449523925781,45.693359375 Q5.727363586425781,50.087890625 -2.6954879760742188,55.0927734375 Q-3.1837692260742188,55.2880859375 -3.8917770385742188,55.7763671875 Q-4.575370788574219,56.2890625 -4.795097351074219,56.2890625 Q-5.283378601074219,56.2890625 -5.991386413574219,55.7763671875 Q-6.674980163574219,55.2880859375 -7.187675476074219,55.0927734375 Q-15.781425476074219,49.892578125 -24.44841766357422,44.9365234375 Q-33.09099578857422,40.0048828125 -41.68474578857422,35.0 L-41.68474578857422,-6.9921875 Q-38.97478485107422,-5.6005859375 -36.19158172607422,-4.0380859375 Q-33.38396453857422,-2.5 -30.89373016357422,-0.693359375 Z" fill="url(#ba1ea86d-b2b4-43a2-8cd1-5fcc2d32c856)" fill-rule="evenodd" />
	</g>
	<g transform="matrix(3.848646, -2.318436, 2.318436, 3.848646, -341.135254, -744.211060)">
		<path d="M-3.1114768981933594,-28.5986328125 Q6.190280914306641,-23.203125 15.34555435180664,-17.9541015625 Q24.50082778930664,-12.705078125 33.80258560180664,-7.3095703125 Q33.28989028930664,13.4912109375 33.80258560180664,34.70703125 Q33.28989028930664,34.70703125 33.04574966430664,34.51171875 Q32.80160903930664,34.2919921875 32.28891372680664,34.0966796875 Q29.99399185180664,32.705078125 27.57699966430664,31.4111328125 Q25.18442153930664,30.0927734375 22.69418716430664,28.701171875 L22.69418716430664,2.6025390625 Q22.69418716430664,1.89453125 22.79184341430664,0.7958984375 Q22.88949966430664,-0.302734375 22.69418716430664,-1.0107421875 Q22.69418716430664,-1.2060546875 22.27914810180664,-1.4990234375 Q21.88852310180664,-1.7919921875 21.37582778930664,-2.0361328125 Q20.88754653930664,-2.3046875 20.37485122680664,-2.5 Q19.88656997680664,-2.6953125 19.69125747680664,-2.79296875 Q14.00278091430664,-6.2109375 8.28989028930664,-9.4091796875 Q2.6014137268066406,-12.607421875 -3.1114768981933594,-16.0009765625 Q-9.41030502319336,-12.412109375 -15.85561752319336,-8.603515625 Q-22.30093002319336,-4.794921875 -28.91714096069336,-1.0107421875 L-28.91714096069336,28.701171875 Q-23.00893783569336,32.2900390625 -16.95425033569336,35.732421875 Q-10.89956283569336,39.19921875 -4.600734710693359,42.7880859375 Q-4.405422210693359,43.0078125 -3.8683128356933594,43.349609375 Q-3.3067893981933594,43.69140625 -3.1114768981933594,43.69140625 Q-2.9161643981933594,43.69140625 -2.3790550231933594,43.349609375 Q-1.8175315856933594,43.0078125 -1.3048362731933594,42.7880859375 Q2.0887184143066406,40.810546875 5.238132476806641,38.955078125 Q8.38754653930664,37.099609375 11.58578872680664,35.29296875 Q14.29574966430664,36.708984375 17.07895278930664,38.3447265625 Q19.88656997680664,40.0048828125 22.40121841430664,41.591796875 Q16.10239028930664,45.205078125 9.63266372680664,48.9404296875 Q3.1873512268066406,52.7001953125 -3.1114768981933594,56.2890625 Q-12.41323471069336,50.8935546875 -21.51968002319336,45.64453125 Q-30.60171127319336,40.3955078125 -39.70815658569336,35.0 L-39.70815658569336,-7.3095703125 Q-30.60171127319336,-12.509765625 -21.51968002319336,-17.8564453125 Q-12.41323471069336,-23.203125 -3.1114768981933594,-28.5986328125 ZM33.80258560180664,35.0 Q33.28989028930664,41.494140625 33.80258560180664,47.59765625 Q28.08969497680664,44.6923828125 22.69418716430664,41.4453125 Q17.29867935180664,38.1982421875 11.90317153930664,35.0 Q14.58871841430664,33.388671875 17.27426528930664,31.9970703125 Q19.98422622680664,30.60546875 22.69418716430664,28.994140625 Q25.37973403930664,30.41015625 28.13852310180664,32.021484375 Q30.89731216430664,33.6083984375 33.80258560180664,35.0 Z" fill="url(#43313f5c-4525-4185-9aa3-008ef5a383fc)" fill-rule="evenodd" />
	</g>
	<rect x="-44.75736220753356" y="-50.0" width="89.51472441506712" height="100.0" transform="matrix(6.968111, 0.000000, 0.000000, 6.968111, -361.135254, -686.897522)" style="fill:#100C0700;" />
</svg>